<?xml version="1.0" encoding="utf-8"?>
<!-- Generator: Adobe Illustrator 22.0.1, SVG Export Plug-In . SVG Version: 6.00 Build 0)  -->
<svg version="1.1" id="Layer_1" xmlns="http://www.w3.org/2000/svg" xmlns:xlink="http://www.w3.org/1999/xlink" x="0px" y="0px"
	 viewBox="0 0 1599.7 358.7" style="enable-background:new 0 0 1599.7 358.7;" xml:space="preserve">
<style type="text/css">
	.st0{fill:#B31B1B;}
</style>
<g id="Layer_2_1_">
</g>
<g>
	<path class="st0" d="M178.9,0C80.1,0,0,80.2,0,178.9s80.1,179.8,178.9,179.8c98.6,0,178.9-81.2,178.9-179.8
		C357.8,80.1,277.7,0,178.9,0z M178.9,338.4c-88,0-159.4-71.4-159.4-159.4S91,19.6,178.9,19.6S338.2,90.8,338.3,179
		C338.3,267,266.9,338.4,178.9,338.4z"/>
	<path class="st0" d="M70.5,209.1c0,81.2,101.5,125.2,105.5,127.1l2.9,1l3.1-1.9c4.9-1.8,105.5-46.9,105.5-124.1V64.6h-217V209.1z
		 M86.1,209.2v-43.9h87.8v11.3c-2.2-0.5-7-1.6-12.4-0.8c-2.9,0-5.9,1-8.8,1c-5,0-8.8,1-12.8,1c-7.8,0-12.6,0-16.6,0h-5.9v98.8h5.9
		c0,0,5.9,0,13.6,0s12.7-1,17.6-1c4.7-1,8.7-1,14.6-1c1,0,1.9,0.9,2.9,1.9c0.4,0.5,1,1.3,1.9,2.1v40.1
		C149.8,306.2,86.1,267.8,86.1,209.2z M173.9,264.5c-1.4-0.4-3.1-0.7-4.8-0.7c-6.8,0-10.7,0-15.4,1c-4.8,0-9.7,1-16.6,1
		c-2,0-5,0-6.9,0v-76.1c3,0,5.9,0,10.8,0c3.7,0,8.7,0,13.6-1c2.9,0,5.9-1,8.8-1c5-1,9.9,0,9.9,0c0.2,0.1,0.4,0.2,0.6,0.3V264.5z
		 M185.6,188.2c0.3-0.2,0.8-0.5,1.3-0.5c0,0,5-1,9.9,0c2.9,0,5.9,1,8.8,1c4.8,0,9.7,1,13.6,1c3.9,0,7.9,0,10.8,0v76.1
		c-2,0-4,0-6.9,0c-6.7,0-11.7-1-16.6-1c-5-1-9.9-1-15.8-1c-1.9,0-3.6,0.3-5.1,0.8V188.2z M185.6,188.1v-0.5l0.4,0.1
		C185.8,187.9,185.7,188,185.6,188.1z M185.6,318.7v-40.5c0.8-0.5,1.6-1.1,2.5-1.7c1-1.9,1-1.9,2.9-1.9c5.8,0,9.7,1,14.6,1
		c4.8,0,9.8,1,17.6,1c7.7,0,13.6,0,13.6,0h5.8v-98.8h-5.9c-3.9,0-8.9,0-16.6,0c-4,0-7.9,0-12.8-1c-2.9,0-5.9-1-8.8-1
		c-5.4,0-11,0.7-12.9,0.9v-11.4h88.1v46.8C273.7,267.2,209.1,306.2,185.6,318.7z M273.7,152.5H86.1V80.1h187.6V152.5z"/>
	<path class="st0" d="M112.6,136.8c6.8,4.9,18.6,11.8,18.6,11.8l1.9,1l2.9-1c0.9,0,11.7-6.9,19.5-11.8c5.9-4,8.8-7.9,8.8-12.8
		c0-0.9,0-12.6,0-36.1V83h-61.6v4.9c0,23.3,0,35.1,0,36.1C103.8,128,106.7,132.8,112.6,136.8z M148.7,128.9c-4.8,3-12.6,8-16.6,9.9
		c-4-2.1-10.9-7-15.8-9.9c-3-1.9-4.9-4.9-4.9-5.9c0-1,0-6,0-12.5h42.2c0,7,0,12.4,0,13.5C153.6,126,150.6,127.9,148.7,128.9z
		 M111.5,91.8v1h42.1c0,2.9,0,5.9,0,8.9h-42.2C111.4,98.4,111.4,95,111.5,91.8L111.5,91.8z"/>
	<path class="st0" d="M208.2,136.8c6.8,4.9,18.6,11.8,18.6,11.8l1.9,1l2.9-1c0.9,0,11.7-6.9,19.5-11.8c5.9-4,8.8-7.9,8.8-12.8
		c0-0.9,0-12.6,0-36.1V83h-61.6v4.9c0,23.3,0,35.1,0,36.1C199.4,128,202.3,132.8,208.2,136.8z M244.6,128.9c-4.9,3-12.6,8-16.6,9.9
		c-4.1-2.1-10.9-7-15.8-9.9c-3-1.9-4.9-4.9-4.9-5.9c0-0.3,0-0.9,0-1.8l20.5-14.6l21.7,14.1c0,1.7,0,2.9,0,3.3
		C249.5,126,246.5,127.9,244.6,128.9z M207.5,91.8v1h42c0,5.9,0,12.3,0,17.7l-21.7-14.7l-20.5,14.4c0-5.7,0-12.4,0-18.4H207.5z"/>
	<rect x="136.8" y="200.3" class="st0" width="25.4" height="8.8"/>
	<rect x="136.8" y="220.8" class="st0" width="25.4" height="8.8"/>
	<rect x="136.8" y="241.5" class="st0" width="25.4" height="8.8"/>
	<rect x="193.5" y="200.3" class="st0" width="25.4" height="8.8"/>
	<rect x="193.5" y="220.8" class="st0" width="25.4" height="8.8"/>
	<rect x="193.5" y="241.5" class="st0" width="25.4" height="8.8"/>
	<path class="st0" d="M451.4,142.4c3.7-3.7,8.1-6.4,13-8.1c4.9-1.7,10.9-2.6,17.9-2.7c9.4,0,16.6,1.2,21.5,3.6
		c4.9,2.4,7.6,6,8.1,10.9l0.1,8.8h4.7c0.3-5.6,0.8-10.4,1.6-14.7c0.5-2.6,1.4-5.3,2.5-8c-1.2-0.2-4.6-1.1-10.2-2.6
		c-5.5-1.5-10.2-2.5-14.1-3c-3.8-0.5-8-0.8-12.5-0.8c-19.1,0-34.2,5.2-45.2,15.6c-11,10.4-16.6,23.5-16.6,39.3
		c0,6.2,0.8,12,2.5,17.2c1.6,5.2,4,10.1,7.1,14.5s7.2,8.5,12.1,12.1c4.9,3.6,10.7,6.4,17.3,8.3c6.6,1.9,13.7,2.9,21.4,2.9
		c6.5,0,12.6-0.7,18.1-2c5.6-1.3,11.2-3.4,17-6.4l2.9-6.9l-1.3-1.6c-3.9,2.8-7.9,4.8-11.8,6.1c-5.8,1.9-12.1,2.8-18.9,2.8
		c-15.1,0-27.2-4.6-36.4-13.7c-9.2-9.2-13.8-21.2-13.8-36.3c0-8.6,1.3-15.7,3.6-21.4C444.6,150.8,447.6,146.1,451.4,142.4z"/>
	<path class="st0" d="M565,161.7c-11.1,0-20.1,3.5-27.2,10.5c-7.1,7-10.6,16.1-10.6,27.2c0,6.1,1.1,11.9,3.4,17.3
		c1.3,3.1,3.2,6.1,5.7,9c2.5,2.9,5.7,5.4,9.7,7.3c4,1.9,8.9,2.9,14.6,2.9c7.4,0,14.2-1.7,20.3-5.1c6.1-3.4,10.9-8.1,14.3-14.1
		c3.4-6,5.1-12.6,5.1-19.9c0-10.4-3.3-18.8-9.8-25.4C583.9,165,575.4,161.7,565,161.7z M580.1,223.8c-3.9,4.6-8.7,6.8-14.4,6.8
		c-4.5,0-8.7-1.5-12.5-4.4c-3.8-2.9-6.8-7.5-8.8-13.8c-2-6.3-3-12.5-3-18.6c0-9.3,1.9-16.2,5.7-20.6c3.8-4.4,8.7-6.6,14.8-6.6
		c4.3,0,8.3,1.2,11.8,3.5c3.6,2.4,6.5,6.4,8.8,12.1c2.3,5.7,3.5,12.5,3.5,20.4C585.9,212.2,584,219.3,580.1,223.8z"/>
	<path class="st0" d="M648.7,162c-2.1,0-4.1,0.4-6,1.2c-1.9,0.8-3.6,1.8-5.1,3.1c-0.8,0.7-2.2,2.4-4.1,4.9c-1.9,2.5-3.9,5.1-6.2,7.7
		c0-6.3,0.2-11,0.4-14.1c0-0.4,0.1-0.8,0.1-1.2c0-0.5-0.1-0.9-0.3-1.1c-0.2-0.2-0.5-0.4-0.8-0.4c-0.3,0-1,0.2-2,0.7
		c-4.6,2.2-11.9,4-21.9,5.4v4.2c5.7,0,8.9,0.1,9.7,0.3c0.8,0.3,1.4,0.7,1.7,1.2c0.3,0.5,0.5,2.3,0.6,5.2c0.1,4.6,0.2,8.8,0.2,12.8
		v8.9c0,0.6-0.1,7.5-0.4,20.8c-0.1,2.4-0.4,4.2-0.9,5.4c-0.2,0.6-0.6,1.1-1,1.4c-0.4,0.3-1.1,0.6-1.9,0.7c-0.4,0.1-3.5,0.2-9.1,0.3
		v4.2c6-0.3,12.1-0.5,18.4-0.5c6.1,0,13.6,0.2,22.3,0.5v-4.2c-6.5-0.4-10.6-0.9-12-1.3c-0.7-0.2-1.3-0.6-1.6-0.9
		c-0.3-0.4-0.6-1-0.8-1.8c-0.2-0.8-0.3-2.8-0.4-5.9c-0.2-8.7-0.4-14.7-0.4-17.9v-7.7c0-6.3,1.3-11,4-14.2c2.7-3.1,5.9-4.7,9.7-4.7
		c2.3,0,4.2,0.5,5.7,1.6c1.5,1.1,2.8,2.8,4,5.2h3.3c0.1-5,0.5-10.8,1.3-17.4l-0.4-1C652.8,162.5,650.7,162,648.7,162z"/>
	<path class="st0" d="M735.9,228.2c-0.5-0.6-0.9-1.6-1.2-3.1c-0.3-2.3-0.5-6.7-0.5-13.2v-13.2c0-10.2-0.2-16.5-0.5-18.7
		c-0.6-3.8-1.8-6.9-3.6-9.4c-1.8-2.5-4.5-4.5-8.1-6.2c-3.6-1.6-7.4-2.5-11.4-2.5c-3.6,0-7.5,0.7-11.5,2.2l-13.9,11.8
		c0.1-5.8,0.3-9.5,0.4-11.3c0-0.4,0.1-0.8,0.1-1.2c0-0.5-0.1-0.9-0.3-1.1c-0.2-0.2-0.5-0.4-0.8-0.4c-0.3,0-1,0.2-2,0.7
		c-4.6,2.2-11.9,4-21.9,5.4v4.2c5.7,0,8.9,0.1,9.7,0.3c0.8,0.3,1.4,0.7,1.7,1.2c0.3,0.5,0.6,2.3,0.7,5.2c0.1,4.6,0.2,8.8,0.2,12.8
		v8.9c-0.3,13.6-0.4,20.7-0.4,21.4c-0.1,2.5-0.5,4.3-1,5.3c-0.3,0.5-0.7,0.9-1.3,1.2c-0.6,0.3-1.4,0.5-2.4,0.6l-7.1,0.1v4.2
		c9.4-0.3,16.2-0.5,20.3-0.5c4.9,0,10.4,0.2,16.4,0.5v-4.2c-5.2-0.1-7.9-0.2-8.2-0.2c-0.8-0.2-1.5-0.5-1.9-0.8
		c-0.4-0.3-0.7-0.7-0.9-1.2c-0.5-1.1-0.8-3-0.9-5.4c0-1-0.1-8-0.4-20.9v-9c0-5.5,0.7-9.3,2-11.7c1.3-2.3,3.5-4.3,6.6-6.1
		c3.1-1.8,6.5-2.6,10.2-2.6c4.2,0,7.8,1,10.8,3c3,2,4.9,4.7,5.7,8c0.6,2.4,0.9,7.5,0.9,15.3v12.5c0,3.2-0.3,11-1,23.2
		c6.4-0.3,11.1-0.5,13.8-0.5c3.2,0,7.3,0.2,12.1,0.5v-4.2l-8-0.2C737.3,229.1,736.5,228.7,735.9,228.2z"/>
	<path class="st0" d="M797.5,165.4c-4.5-2.5-9.5-3.8-15.1-3.8c-4.6,0-8.8,0.8-12.7,2.5c-3,1.2-6,2.8-9,4.9c-3,2.1-5.3,3.9-6.7,5.5
		c-2,2.2-3.8,5.6-5.3,10.2c-1.6,4.6-2.3,9.7-2.3,15.4c0,7.3,1.5,13.6,4.4,19.1c2.9,5.4,7,9.5,12.3,12.2c5.3,2.7,11.2,4.1,17.8,4.1
		c3.3,0,6.5-0.4,9.5-1.1c3-0.7,5.7-1.6,8-2.6c1.6-0.7,4.1-2.1,7.5-4.2l2.4-5.4l-1.2-1.3c-4.4,2.6-8.1,4.4-11.1,5.3c-3,1-6,1.4-9,1.4
		c-4.5,0-8.8-1-12.9-3.1c-4.1-2.1-7.4-5.3-9.7-9.7c-2.4-4.4-3.6-10.1-3.7-17.2h23.9c5.4,0,10.7-0.2,16.1-0.6c2.8-0.2,6-0.6,9.6-1.3
		c0.2-2,0.3-3.7,0.3-5.1c0-5.5-1-10.4-3.1-14.8C805.3,171.4,802,168,797.5,165.4z M796.8,192.1c-2.1,0.2-6.4,0.4-13,0.4
		c-2.8,0-7.9-0.1-15.3-0.4c-3.9-0.1-6.5-0.3-7.9-0.4c0-8.7,1.8-15,5.2-19c3.4-4,7.9-6,13.6-6c5.3,0,9.6,1.8,12.7,5.5
		c3.2,3.7,4.8,9.4,4.8,17.2C796.9,190,796.8,190.9,796.8,192.1z"/>
	<path class="st0" d="M840,228.3c-0.4-0.3-0.7-0.7-0.9-1.2c-0.5-1.1-0.8-2.9-0.9-5.4c0-1-0.2-8-0.4-20.9v-38.6l0.1-11.6
		c0-6.2,0.2-13.8,0.4-22.7l0.1-2.5c0.1-0.6,0.1-1.1,0.1-1.5c0-0.4-0.1-0.7-0.3-0.9c-0.2-0.2-0.5-0.3-0.8-0.3c-0.3,0-0.8,0.1-1.5,0.4
		c-4.4,2.1-12.1,3.8-23.4,5.2v4.4c6.1,0,9.5,0.2,10.3,0.5c0.5,0.2,0.9,0.5,1.2,1c0.3,0.7,0.6,4,0.8,10c0.3,8.8,0.4,17.4,0.4,25.6
		v30.8c-0.3,13.6-0.5,20.7-0.5,21.3c-0.1,2.5-0.4,4.3-1,5.3c-0.3,0.5-0.7,0.9-1.3,1.2c-0.6,0.3-1.4,0.5-2.5,0.6l-7,0.1v4.3
		c7.9-0.4,14.3-0.6,19.2-0.6c5.1,0,11,0.2,17.8,0.6v-4.3c-5.2-0.1-7.9-0.2-8.3-0.2C841,228.9,840.4,228.6,840,228.3z"/>
	<path class="st0" d="M884.3,228.3c-0.4-0.3-0.7-0.7-0.9-1.2c-0.5-1.1-0.8-2.9-0.9-5.4c0-1-0.2-8-0.4-20.9v-38.6l0.1-11.6
		c0-6.2,0.2-13.8,0.4-22.7l0.1-2.5c0.1-0.6,0.1-1.1,0.1-1.5c0-0.4-0.1-0.7-0.3-0.9c-0.2-0.2-0.5-0.3-0.8-0.3c-0.3,0-0.8,0.1-1.5,0.4
		c-4.4,2.1-12.1,3.8-23.4,5.2v4.4c6.1,0,9.5,0.2,10.3,0.5c0.5,0.2,0.9,0.5,1.2,1c0.3,0.7,0.6,4,0.8,10c0.3,8.8,0.4,17.4,0.4,25.6
		v30.8c-0.3,13.6-0.5,20.7-0.5,21.3c-0.1,2.5-0.4,4.3-1,5.3c-0.3,0.5-0.7,0.9-1.3,1.2c-0.6,0.3-1.4,0.5-2.5,0.6l-7,0.1v4.3
		c7.9-0.4,14.3-0.6,19.2-0.6c5.1,0,11,0.2,17.8,0.6v-4.3c-5.2-0.1-7.9-0.2-8.3-0.2C885.3,228.9,884.7,228.6,884.3,228.3z"/>
	<path class="st0" d="M1042.9,127.9c-8.9,0.4-15.1,0.6-18.5,0.6c-3.8,0-9.7-0.2-17.9-0.6v4.8c5.9,0.1,9.4,0.4,10.7,0.8
		c1.3,0.4,2.2,1.1,2.8,1.9c0.6,0.9,0.9,3.7,1,8.4c0.2,6.4,0.3,13,0.3,19.8v22.9c0,6.5-0.2,11.9-0.7,16.1c-0.5,4.2-1.2,7.6-2.3,10
		c-1.1,2.4-2.7,4.6-4.8,6.6c-2.2,2-5.4,3.6-9.7,5c-4.3,1.4-9.2,2-14.8,2c-4.8,0-9.1-0.5-12.9-1.5c-3.9-1-6.9-2.4-9.2-4.1
		c-3-2.2-5.1-5-6.5-8.4c-1.4-3.4-2-10.4-2-21.1v-27.5c0.1-13.1,0.2-20.1,0.3-21.1c0.1-3.8,0.5-6.2,1.2-7.2c0.4-0.7,1.3-1.3,2.6-1.7
		c1.3-0.4,4.9-0.7,10.7-0.8v-4.8c-6.9,0.4-13.9,0.6-21,0.6c-6.9,0-14.5-0.2-22.5-0.6v4.8c5.9,0.1,9.5,0.4,10.7,0.8
		c1.3,0.4,2.2,1.1,2.8,1.9c0.6,0.9,0.9,3.7,1.1,8.4c0.1,6.4,0.2,13,0.2,19.8v32.9c0,9.6,0.7,16.4,2.1,20.5c1.1,3.1,3.1,6.1,6,9
		c2.9,3,7.2,5.3,12.8,7.1c5.6,1.8,12.2,2.7,19.9,2.7c6.5,0,12.5-0.8,17.9-2.3c5.4-1.5,9.8-3.7,13.2-6.5c4.6-3.7,7.7-8,9.4-12.9
		c1.7-4.9,2.6-13.4,2.6-25.7v-24.9c0.1-13.1,0.2-20.1,0.3-21.1c0.1-3.8,0.5-6.2,1.1-7.2c0.5-0.7,1.4-1.3,2.6-1.7
		c1.3-0.4,4.8-0.7,10.7-0.8V127.9z"/>
	<path class="st0" d="M1111.7,228.2c-0.5-0.6-0.9-1.6-1.2-3.1c-0.3-2.3-0.5-6.7-0.5-13.2v-13.2c0-10.2-0.2-16.5-0.5-18.7
		c-0.6-3.8-1.8-6.9-3.6-9.4s-4.5-4.5-8.1-6.2c-3.6-1.6-7.4-2.5-11.4-2.5c-3.6,0-7.5,0.7-11.5,2.2l-13.9,11.8
		c0.1-5.8,0.3-9.5,0.4-11.3c0-0.4,0.1-0.8,0.1-1.2c0-0.5-0.1-0.9-0.3-1.1c-0.2-0.2-0.5-0.4-0.8-0.4c-0.3,0-1,0.2-2,0.7
		c-4.6,2.2-11.9,4-21.9,5.4v4.2c5.7,0,8.9,0.1,9.7,0.3c0.8,0.3,1.4,0.7,1.7,1.2c0.3,0.5,0.6,2.3,0.7,5.2c0.1,4.6,0.2,8.8,0.2,12.8
		v8.9c-0.3,13.6-0.4,20.7-0.4,21.4c-0.1,2.5-0.5,4.3-1,5.3c-0.3,0.5-0.7,0.9-1.3,1.2c-0.6,0.3-1.4,0.5-2.4,0.6l-7.1,0.1v4.2
		c9.4-0.3,16.2-0.5,20.3-0.5c4.9,0,10.4,0.2,16.4,0.5v-4.2c-5.2-0.1-7.9-0.2-8.2-0.2c-0.8-0.2-1.5-0.5-1.9-0.8
		c-0.4-0.3-0.7-0.7-0.9-1.2c-0.5-1.1-0.8-3-0.9-5.4c0-1-0.1-8-0.4-20.9v-9c0-5.5,0.7-9.3,2-11.7s3.5-4.3,6.6-6.1
		c3.1-1.8,6.5-2.6,10.2-2.6c4.2,0,7.8,1,10.8,3c3,2,4.9,4.7,5.7,8c0.6,2.4,0.9,7.5,0.9,15.3v12.5c0,3.2-0.3,11-1,23.2
		c6.4-0.3,11.1-0.5,13.8-0.5c3.2,0,7.3,0.2,12.1,0.5v-4.2l-8-0.2C1113.1,229.1,1112.3,228.7,1111.7,228.2z"/>
	<path class="st0" d="M1142.5,145.6c2.3,0,4.2-0.8,5.9-2.5s2.5-3.6,2.5-5.9c0-2.3-0.8-4.3-2.4-6c-1.6-1.6-3.6-2.5-5.9-2.5
		c-2.3,0-4.3,0.8-6,2.5c-1.6,1.6-2.5,3.6-2.5,6c0,2.3,0.8,4.2,2.5,5.9C1138.1,144.8,1140.1,145.6,1142.5,145.6z"/>
	<path class="st0" d="M1151.8,228.5c-0.4-0.3-0.7-0.7-1-1.2c-0.5-1.1-0.8-2.9-0.8-5.4c-0.1-1-0.2-8-0.4-20.9v-13.5
		c0-5.6,0.2-13.7,0.6-24.2l-1.6-1.2c-6.5,3.1-14.6,5.2-24.2,6.2v4.2c5.9,0,9.2,0.2,9.9,0.6c0.8,0.4,1.3,0.9,1.6,1.7
		c0.5,1.4,0.7,5.8,0.7,13.2V201c-0.3,13.6-0.4,20.7-0.4,21.3c-0.1,2.5-0.5,4.3-1,5.3c-0.3,0.5-0.7,0.9-1.3,1.2
		c-0.6,0.3-1.4,0.5-2.4,0.6l-7.1,0.1v4.2c9-0.3,15.5-0.5,19.5-0.5c4.5,0,10.5,0.2,18.1,0.5v-4.2c-5.2-0.1-8-0.2-8.3-0.2
		C1152.8,229.1,1152.2,228.8,1151.8,228.5z"/>
	<path class="st0" d="M1211.5,163.7v4.5c5.2,0.1,8.3,0.5,9.5,1.2c0.6,0.3,1,0.9,1,1.8c0,0.6-0.1,1.4-0.3,2.2
		c-0.8,3.1-2.4,7.6-4.8,13.5c-4.1,10.2-6.3,15.7-6.8,16.7l-7.4,16.9c-0.9-2-2.6-5.9-5-11.8l-2.2-5.1l-9.1-22.6c-2-4.9-3-8.1-3-9.6
		c0-0.9,0.5-1.7,1.4-2.2c0.9-0.5,4.1-0.9,9.4-1v-4.5c-7.2,0.3-12.9,0.5-17.1,0.5c-3.8,0-9.8-0.2-18-0.5v4.5c3,0.1,4.8,0.2,5.5,0.4
		c0.8,0.2,1.6,0.7,2.3,1.4c0.7,0.7,1.5,2.2,2.5,4.5l15.2,35.5l6.1,14.2c0.7,1.7,2.1,5.1,4,10.2h7.7c7.3-17.5,11.6-27.5,12.9-30.3
		l7.1-15.2c4.7-9.5,7.3-14.9,8-16.1c1-1.8,2-3,3-3.5c1-0.6,3.1-0.9,6.1-1.1v-4.5c-7.7,0.3-12.5,0.5-14.2,0.5
		C1223.6,164.2,1218.9,164.1,1211.5,163.7z"/>
	<path class="st0" d="M1292.1,165.4c-4.5-2.5-9.5-3.8-15.1-3.8c-4.6,0-8.8,0.8-12.7,2.5c-3,1.2-6,2.8-9,4.9c-3,2.1-5.3,3.9-6.7,5.5
		c-2,2.2-3.8,5.6-5.3,10.2c-1.6,4.6-2.3,9.7-2.3,15.4c0,7.3,1.5,13.6,4.4,19.1c2.9,5.4,7.1,9.5,12.3,12.2c5.3,2.7,11.2,4.1,17.8,4.1
		c3.3,0,6.5-0.4,9.5-1.1c3-0.7,5.7-1.6,8-2.6c1.6-0.7,4.1-2.1,7.5-4.2l2.4-5.4l-1.2-1.3c-4.4,2.6-8.1,4.4-11.1,5.3c-3,1-6,1.4-9,1.4
		c-4.5,0-8.8-1-12.9-3.1c-4.1-2.1-7.4-5.3-9.7-9.7c-2.4-4.4-3.6-10.1-3.7-17.2h23.9c5.4,0,10.7-0.2,16.1-0.6c2.8-0.2,6-0.6,9.6-1.3
		c0.2-2,0.3-3.7,0.3-5.1c0-5.5-1-10.4-3.1-14.8C1299.9,171.4,1296.6,168,1292.1,165.4z M1291.4,192.1c-2.1,0.2-6.4,0.4-13,0.4
		c-2.8,0-7.9-0.1-15.3-0.4c-3.9-0.1-6.5-0.3-7.9-0.4c0-8.7,1.8-15,5.2-19c3.4-4,7.9-6,13.6-6c5.3,0,9.6,1.8,12.7,5.5
		c3.2,3.7,4.8,9.4,4.8,17.2C1291.5,190,1291.5,190.9,1291.4,192.1z"/>
	<path class="st0" d="M1357.8,162c-2.1,0-4.1,0.4-6,1.2c-1.9,0.8-3.6,1.8-5.1,3.1c-0.8,0.7-2.2,2.4-4.1,4.9
		c-1.9,2.5-3.9,5.1-6.2,7.7c0-6.3,0.2-11,0.4-14.1c0-0.4,0.1-0.8,0.1-1.2c0-0.5-0.1-0.9-0.3-1.1c-0.2-0.2-0.5-0.4-0.8-0.4
		c-0.3,0-1,0.2-2,0.7c-4.6,2.2-11.9,4-21.9,5.4v4.2c5.7,0,8.9,0.1,9.7,0.3c0.8,0.3,1.4,0.7,1.7,1.2c0.3,0.5,0.5,2.3,0.6,5.2
		c0.1,4.6,0.2,8.8,0.2,12.8v8.9c0,0.6-0.1,7.5-0.4,20.8c-0.1,2.4-0.4,4.2-0.9,5.4c-0.2,0.6-0.6,1.1-1,1.4c-0.4,0.3-1.1,0.6-1.9,0.7
		c-0.4,0.1-3.5,0.2-9.1,0.3v4.2c6-0.3,12.1-0.5,18.4-0.5c6.1,0,13.6,0.2,22.3,0.5v-4.2c-6.5-0.4-10.6-0.9-12.1-1.3
		c-0.7-0.2-1.3-0.6-1.6-0.9c-0.3-0.4-0.6-1-0.8-1.8c-0.2-0.8-0.3-2.8-0.4-5.9c-0.2-8.7-0.4-14.7-0.4-17.9v-7.7c0-6.3,1.3-11,4-14.2
		c2.7-3.1,5.9-4.7,9.7-4.7c2.3,0,4.2,0.5,5.7,1.6c1.5,1.1,2.8,2.8,4,5.2h3.3c0.1-5,0.5-10.8,1.3-17.4l-0.4-1
		C1361.9,162.5,1359.8,162,1357.8,162z"/>
	<path class="st0" d="M1413.6,196.7c-2.4-1.1-6.7-2.5-12.9-4.1l-12.3-3c-2.3-0.7-4.1-1.5-5.4-2.3c-1.3-0.9-2.3-2-3.1-3.4
		c-0.8-1.4-1.2-3-1.2-5c0-3.5,1.3-6.5,4-9.1c2.7-2.6,6.2-3.9,10.5-3.9c3.1,0,5.7,0.4,7.8,1.2c2.1,0.8,3.8,1.7,5.2,2.7
		c1.3,1,2.3,2,2.8,2.9c0.5,0.9,1,1.9,1.3,3c0.3,1.1,0.6,3.5,0.9,7.1h4.2c0.1-5.7,0.4-11.3,0.7-16.8c-2.6-1.3-5.9-2.4-10-3.2
		c-4.1-0.9-7.7-1.3-10.9-1.3c-5.2,0-10,1-14.4,3.1c-4.4,2.1-7.6,4.7-9.7,8c-2.1,3.3-3.1,6.9-3.1,10.8c0,2.7,0.5,5.2,1.4,7.4
		c1,2.3,2.3,4.2,3.9,5.7c1.6,1.5,3.8,2.8,6.6,3.8c1.8,0.6,5.9,1.7,12.2,3.1c6.3,1.4,10.4,2.6,12.3,3.5c1.9,0.9,3.4,2.1,4.4,3.7
		c1,1.6,1.5,3.4,1.5,5.5c0,4.7-1.6,8.3-4.9,11c-3.2,2.7-7.4,4-12.5,4c-3.1,0-5.4-0.1-6.9-0.3c-1.5-0.2-3-0.6-4.5-1.2
		c-1.5-0.6-2.8-1.5-4.1-2.6c-1.2-1.1-2.2-2.5-2.8-4.1c-0.6-1.6-1-3.3-1.3-4.9c-0.2-1.7-0.4-4-0.4-6.8h-4.5
		c-0.1,6.4-0.2,10.7-0.4,12.7c-0.1,2-0.4,4.1-0.9,6.2c-0.1,0.5-0.1,0.9-0.1,1.3c0,0.3,0.1,0.6,0.3,0.7c0.3,0.3,2.4,0.8,6.3,1.6
		c7.1,1.3,12.8,1.9,17,1.9c9.3,0,16.7-2.5,22.2-7.5c5.5-5,8.3-10.8,8.3-17.5c0-3.4-0.7-6.3-2.2-8.7
		C1417.9,199.6,1416,197.8,1413.6,196.7z"/>
	<path class="st0" d="M1447.9,145.6c2.3,0,4.2-0.8,5.9-2.5s2.5-3.6,2.5-5.9c0-2.3-0.8-4.3-2.4-6c-1.6-1.6-3.6-2.5-5.9-2.5
		c-2.3,0-4.3,0.8-6,2.5c-1.6,1.6-2.5,3.6-2.5,6c0,2.3,0.8,4.2,2.5,5.9C1443.5,144.8,1445.5,145.6,1447.9,145.6z"/>
	<path class="st0" d="M1457.2,228.5c-0.4-0.3-0.7-0.7-1-1.2c-0.5-1.1-0.8-2.9-0.8-5.4c0-1-0.2-8-0.4-20.9v-13.5
		c0-5.6,0.2-13.7,0.6-24.2l-1.6-1.2c-6.5,3.1-14.6,5.2-24.2,6.2v4.2c5.9,0,9.2,0.2,9.9,0.6c0.8,0.4,1.3,0.9,1.6,1.7
		c0.5,1.4,0.7,5.8,0.7,13.2V201c-0.3,13.6-0.4,20.7-0.4,21.3c-0.1,2.5-0.5,4.3-1,5.3c-0.3,0.5-0.7,0.9-1.3,1.2
		c-0.6,0.3-1.4,0.5-2.4,0.6l-7.1,0.1v4.2c9-0.3,15.5-0.5,19.5-0.5c4.5,0,10.5,0.2,18.1,0.5v-4.2c-5.2-0.1-8-0.2-8.3-0.2
		C1458.2,229.1,1457.6,228.8,1457.2,228.5z"/>
	<path class="st0" d="M1494.1,174.6c4.7,0,8.3-0.1,10.9-0.1c2.6,0,5.5,0,8.6,0.1l1.6-6.9l-0.5-0.5c-1.3,0.1-3.2,0.2-5.8,0.3
		c-4.7,0.1-7.2,0.1-7.7,0.1c-0.8,0-3.2,0-7.1-0.1c0.6-14,1.2-23.1,1.8-27.2l-1.8-1.5c-3.2,2-7.4,3.9-12.6,5.7
		c0.3,3.3,0.4,10.8,0.4,22.6c-2.9,1.5-6.9,3.2-11.8,5.1v3.1c3.1-0.2,5.9-0.4,8.3-0.4h3v30.9c0,0.9,0,1.8-0.1,2.6
		c-0.1,4-0.2,7.7-0.3,11.1c0.2,3.5,0.8,6.1,1.6,7.7c0.8,1.6,1.9,3,3.2,4.1c1.3,1.1,2.7,1.9,4.3,2.5c1.6,0.6,3.7,0.9,6.3,0.9
		c2.1,0,4-0.1,5.7-0.3c1.6-0.2,3.4-0.7,5.3-1.4c2.2-2,4.4-3.9,6.8-5.7l-0.9-2.9c-1.9,0.7-3.5,1.1-4.8,1.3c-1.3,0.2-2.9,0.3-4.9,0.3
		c-2.7-0.3-4.6-0.8-5.7-1.5c-1.1-0.6-2-1.5-2.7-2.6c-0.7-1.1-1.2-2.3-1.4-3.8c-0.2-1.4-0.3-5.9-0.1-13.2L1494.1,174.6z"/>
	<path class="st0" d="M1585.5,164.2c-4.4,0-9.5-0.2-15.2-0.5v4.5c5.2,0.5,8.2,1,9,1.5c0.8,0.5,1.2,1.3,1.2,2.2
		c0,0.6-0.1,1.3-0.3,2.1c-0.6,2.3-2.9,8.3-6.8,18c-3.9,9.7-6.6,16.3-8.1,19.8l-3.9,8.8c-1.9-4.3-4.3-9.9-7.1-16.9l-4.7-11.6
		c-1.7-4.3-3.6-9.5-5.5-15.6c-0.8-2.5-1.3-4.1-1.3-4.9c0-1.3,0.6-2.2,1.9-2.7c0.7-0.3,3.7-0.6,8.8-1v-4.2c-5.4,0.3-11,0.5-16.9,0.5
		c-6,0-12.1-0.2-18.2-0.5v4.2c3.5,0.4,5.8,0.9,6.8,1.5c1,0.6,2,1.8,2.9,3.7c2.2,4.7,5.1,11.3,8.6,20.1l11.8,29.3
		c2.2,5.6,4.1,10.6,5.7,15c-2.1,5.5-4.4,10.9-7.1,16.2c-1.7,3.5-3.2,6-4.5,7.4c-1.3,1.4-2.6,2.5-4.1,3.2c-1.5,0.7-3,1-4.5,1
		c-1.5,0-2.6-0.1-3.4-0.4c-0.8-0.2-1.5-0.6-2.2-1.1c-0.7-0.5-1.5-1.1-2.4-1.9h-1.8l-3.8,11.5c1.6,0.9,3.1,1.5,4.4,1.9
		c1.3,0.4,2.8,0.6,4.4,0.6c3.4,0,6.5-0.7,9.3-2.2c2.8-1.4,5.3-3.5,7.3-6.3c2-2.8,4.4-7.4,7.2-13.9l17.2-40.1
		c7.6-16.6,12.8-27.8,15.6-33.5c2.8-5.7,4.9-9,6.3-10c1.4-1,3.3-1.5,5.9-1.6l0.7-4.5C1594.3,164.1,1589.9,164.2,1585.5,164.2z"/>
</g>
</svg>
